<svg id="Layer_1" data-name="Layer 1" xmlns="http://www.w3.org/2000/svg" viewBox="0 0 256 256"><defs><style>.cls-1{fill:#fffde6;}.cls-2{fill:#fff;}.cls-3{fill:#f68b1c;}.cls-4{fill:#f58a1f;}.cls-5{fill:#acc034;}</style></defs><title>Icon-Step-2</title><path class="cls-1" d="M128,15.19A112.81,112.81,0,1,0,240.81,128,112.93,112.93,0,0,0,128,15.19Zm69,175.23a6.1,6.1,0,0,1-6,6.06H61.21a6.26,6.26,0,0,1-6.15-6.06v-79a10.63,10.63,0,0,1,3.59-7.48L78.08,89.07V66.48c0-3.26,3.48-5.56,6.74-5.56h32L122,57a5.9,5.9,0,0,1,8.34-.08l5.14,4h32c3.26,0,6.55,2.3,6.55,5.56V89.16l19.91,15.23s3.11,2.85,3.11,6.36Z"/><polygon class="cls-2" points="178.41 184.97 126.13 146.43 73.86 184.97 178.41 184.97"/><polygon class="cls-2" points="185.51 123.08 147.49 152.17 185.51 181.2 185.51 123.08"/><polygon class="cls-2" points="174 123.33 185.51 114.62 185.51 110.66 174 102.02 174 123.33"/><polygon class="cls-2" points="78.08 123.33 78.08 102.1 67.85 110.75 67.85 114.62 78.08 123.33"/><polygon class="cls-2" points="67.85 123.09 67.85 181.2 105.89 152.16 67.85 123.09"/><path class="cls-2" d="M122,139.33a5.94,5.94,0,0,1,8.38,0l10.51,8,26.74-19.66V67.32H84.48v60.36l26.83,19.66ZM97.92,106.2c0-18.22,13.08-32,30.42-32,14.38,0,24.42,10,24.42,24.26,0,13.21-7.67,20.12-15.25,20.12a6.69,6.69,0,0,1-4.92-2,7,7,0,0,1-1.8-3.88,13,13,0,0,1-11,5.87c-4.76,0-9.58-3.79-9.58-11a20.06,20.06,0,0,1,20-20,22.35,22.35,0,0,1,9,1.78l.58.26-2.88,15.31c-.94,4.76-.39,6.69.23,7.47a1.76,1.76,0,0,0,1.43.65,5.78,5.78,0,0,0,3.85-1.8c2.59-2.54,4.08-7,4.08-12.23,0-12-7.21-19.38-18.82-19.38-13.63,0-23.52,11-23.52,26.11,0,12.61,8,21.09,20,21.09a24.34,24.34,0,0,0,11.85-2.73l.83-.47,1.88,5.05-.63.33a30.22,30.22,0,0,1-14.82,3.34C108.6,132.33,97.92,121.34,97.92,106.2Z"/><path class="cls-2" d="M132.35,93.82a13.65,13.65,0,0,0-3.12-.35c-6.55,0-12.08,6.32-12.08,13.79,0,1.61.44,5.35,4.54,5.35s8.23-5.47,9.09-10.36Z"/><path class="cls-3" d="M193.91,104.39,174,89.16V66.48c0-3.26-3.29-5.56-6.55-5.56h-32l-5.14-4A5.9,5.9,0,0,0,122,57l-5.15,4h-32c-3.26,0-6.74,2.3-6.74,5.56V89.07L58.66,103.9a10.63,10.63,0,0,0-3.59,7.48v79a6.26,6.26,0,0,0,6.15,6.06H191a6.1,6.1,0,0,0,6-6.06V110.75C197,107.24,193.91,104.39,193.91,104.39Zm-67.78,42L178.41,185H73.86Zm21.36,5.74,38-29.09V181.2Zm-63-84.85H167.6v60.36l-26.74,19.66-10.51-8a5.94,5.94,0,0,0-8.38,0l-10.67,8L84.48,127.68ZM78.08,102.1v21.23l-10.23-8.71v-3.87Zm-10.23,21,38,29.07-38,29Zm117.66-8.47L174,123.33V102l11.51,8.63Z"/><path class="cls-4" d="M138.13,129l.63-.33-1.88-5.05-.83.47a24.34,24.34,0,0,1-11.85,2.73c-12,0-20-8.47-20-21.09,0-15.13,9.89-26.11,23.52-26.11C139.3,79.6,146.51,87,146.51,99c0,5.23-1.48,9.69-4.08,12.23a5.78,5.78,0,0,1-3.85,1.8,1.76,1.76,0,0,1-1.43-.65c-.62-.78-1.17-2.71-.23-7.47l2.88-15.31-.58-.26a22.35,22.35,0,0,0-9-1.78,20.06,20.06,0,0,0-20,20c0,7.25,4.82,11,9.58,11a13,13,0,0,0,11-5.87,7,7,0,0,0,1.8,3.88,6.69,6.69,0,0,0,4.92,2c7.58,0,15.25-6.91,15.25-20.12,0-14.28-10-24.26-24.42-24.26-17.34,0-30.42,13.74-30.42,32,0,15.14,10.68,26.12,25.39,26.12A30.22,30.22,0,0,0,138.13,129Zm-16.44-16.38c-4.1,0-4.54-3.74-4.54-5.35,0-7.47,5.53-13.79,12.08-13.79a13.65,13.65,0,0,1,3.12.35l-1.57,8.43C129.91,107.14,125.84,112.61,121.69,112.61Z"/><path class="cls-5" d="M217,39a125.57,125.57,0,0,0-57.53-32.9q-3-.78-6.09-1.41A126.41,126.41,0,0,0,128,2.16h0a126.41,126.41,0,0,0-25.36,2.56q-3.07.63-6.09,1.41A125.57,125.57,0,0,0,39,39Q34.75,43.29,30.89,48A125.33,125.33,0,0,0,2.16,128a126.83,126.83,0,0,0,1.45,19.16,125.08,125.08,0,0,0,4.21,18.26Q9.65,171.33,12,177a126,126,0,0,0,84.5,72.9q3,.78,6.09,1.41A126.41,126.41,0,0,0,128,253.84h0a126.41,126.41,0,0,0,25.36-2.56q3.07-.63,6.09-1.41a124.94,124.94,0,0,0,23.11-8.45q5.5-2.65,10.7-5.81A126.37,126.37,0,0,0,217,217q4.27-4.27,8.12-8.94A125.81,125.81,0,0,0,244,177q2.39-5.65,4.23-11.56a125.08,125.08,0,0,0,4.21-18.26A126.83,126.83,0,0,0,253.84,128a125.33,125.33,0,0,0-28.74-80Q221.26,43.29,217,39ZM128,240.81A112.81,112.81,0,1,1,240.81,128,112.93,112.93,0,0,1,128,240.81Z"/></svg>